# AST/ASF file generated using VICON BodyLanguage
# -----------------------------------------------
:version 1.10
:name VICON
:units
  mass 1.0
  length 0.45
  angle deg
:documentation
   .ast/.asf automatically generated from VICON data using
   VICON BodyBuilder and BodyLanguage model FoxedUp or BRILLIANT.MOD
:root
   order TX TY TZ RX RY RZ
   axis XYZ
   position 0 0 0  
   orientation 0 0 0 
:bonedata
  begin
     id 1 
     name lhipjoint
     direction 0.567725 -0.736092 0.368589 
     length 2.42353 
     axis 0 0 0  XYZ
  end
  begin
     id 2 
     name lfemur
     direction 0.34202 -0.939693 0  
     length 7.24894  
     axis 0 0 20  XYZ
    dof rx ry rz
    limits (-160.0 20.0)
           (-70.0 70.0)
           (-60.0 70.0)
  end
  begin
     id 3 
     name ltibia
     direction 0.34202 -0.939693 0   
     length 7.6997   
     axis 0 0 20   XYZ
    dof rx
    limits (-10.0 170.0)
  end
  begin
     id 4 
     name lfoot
     direction 0.100767 -0.276854 0.955614   
     length 2.37556   
     axis -90 7.62852e-016 20   XYZ
    dof rx rz
    limits (-45.0 90.0)
           (-70.0 20.0)
  end
  begin
     id 5 
     name ltoes
     direction 1.53592e-011 -4.21894e-011 1   
     length 1.18363   
     axis -90 7.62852e-016 20   XYZ
    dof rx
    limits (-90.0 20.0)
  end
  begin
     id 6 
     name rhipjoint
     direction -0.556459 -0.742938 0.372017   
     length 2.4012  
     axis 0 0 0  XYZ 
  end
  begin
     id 7 
     name rfemur
     direction -0.34202 -0.939693 0   
     length 7.5119   
     axis 0 0 -20   XYZ
    dof rx ry rz
    limits (-160.0 20.0)
           (-70.0 70.0)
           (-70.0 60.0)
  end
  begin
     id 8 
     name rtibia
     direction -0.34202 -0.939693 0   
     length 7.50155   
     axis 0 0 -20   XYZ
    dof rx
    limits (-10.0 170.0)
 end
 begin
     id 9 
     name rfoot
     direction -0.118427 -0.325376 0.938139   
     length 2.32487  
     axis -90 -7.62852e-016 -20   XYZ
    dof rx rz
    limits (-45.0 90.0)
           (-20.0 70.0)
  end
  begin
     id 10 
     name rtoes
     direction -1.53525e-011 -4.21868e-011 1   
     length 1.15233   
     axis -90 -7.62852e-016 -20   XYZ
    dof rx
    limits (-90.0 20.0)
  end
  begin
     id 11 
     name lowerback
     direction 0.0287568 0.999577 -0.00434502   
     length 2.15243   
     axis 0 0 0   XYZ
    dof rx ry rz
    limits (-20.0 45.0)
           (-30.0 30.0)
           (-30.0 30.0)
  end
  begin
     id 12 
     name upperback
     direction 0.0294009 0.99956 0.00404628   
     length 2.15427   
     axis 0 0 0   XYZ
    dof rx ry rz
    limits (-20.0 45.0)
           (-30.0 30.0)
           (-30.0 30.0)
  end
  begin
     id 13 
     name thorax
     direction 0.0151014 0.999868 0.0059419   
     length 2.14898   
     axis 0 0 0   XYZ
    dof rx ry rz
    limits (-20.0 45.0)
           (-30.0 30.0)
           (-30.0 30.0)
  end
  begin
     id 14 
     name lowerneck
     direction -0.0249197 0.989906 0.139515   
     length 1.6861   
     axis 0 0 0   XYZ
    dof rx ry rz
    limits (-20.0 45.0)
           (-30.0 30.0)
           (-30.0 30.0)
  end
  begin
     id 15 
     name upperneck
     direction 0.0438463 0.988795 -0.142693   
     length 1.71276   
     axis 0 0 0   XYZ
    dof rx ry rz
    limits (-20.0 45.0)
           (-30.0 30.0)
           (-30.0 30.0)
  end
  begin
     id 16
     name head
     direction 0.0148499 0.997845 -0.0639186  
     length 1.7209  
     axis 0 0 0   XYZ
    dof rx ry rz
    limits (-20.0 45.0)
           (-30.0 30.0)
           (-30.0 30.0)
  end
  begin
     id 17 
     name lclavicle
     direction 0.940298 0.323464 -0.105876  
     length 3.9048  
     axis 0 0 0   XYZ
    dof ry rz
    limits (-20.0 10.0)
           (0.0 20.0)
  end
  begin
     id 18 
     name lhumerus
     direction 1 -4.48954e-011 -4.9675e-028   
     length 4.6851   
     axis 180 -30 -90   XYZ
    dof rx ry rz
    limits (-60.0 90.0)
           (-90.0 90.0)
           (-90.0 90.0)
  end
  begin
     id 19
     name lradius
     direction 1 -4.48992e-011 -1.03359e-026   
     length 3.39626   
     axis 180 -30 -90   XYZ
    dof rx
    limits (-10.0 170.0)
  end
  begin
     id 20
     name lwrist
     direction 1 -4.48906e-011 -1.67336e-026   
     length 1.69813   
     axis 9.90442e-015 90 90   XYZ
    dof ry
    limits (-180.0 0.0)
 end
  begin
     id 21 
     name lhand
     direction 1 -4.49006e-011 -3.34673e-026   
     length 0.486078   
     axis 2.1355e-014 90 90   XYZ
    dof rx rz
    limits (-90.0 90.0)
           (-45.0 45.0)
  end
  begin
     id 22 
     name lfingers
     direction 1 -4.48992e-011 -6.69345e-026   
     length 0.391889   
     axis 4.27099e-014 90 90   XYZ
    dof rx
    limits (0.0 90.0)
  end
  begin
     id 23
     name lthumb
     direction 0.707107 -6.34926e-011 0.707107   
     length 0.562676   
     axis -90 45 2.85299e-015   XYZ
    dof rx rz
    limits (-45.0 45.0)
           (-45.0 45.0)
  end
  begin
     id 24 
     name rclavicle
     direction -0.882459 0.414895 -0.221648   
     length 3.44646  
     axis 0 0 0   XYZ 
    dof ry rz
    limits (-10.0 20.0)
           (-20.0 0.0)
  end
  begin
     id 25 
     name rhumerus
     direction -1 -4.48962e-011 -2.37984e-027  
     length 5.55576   
     axis 180 30 90   XYZ
    dof rx ry rz
    limits (-90.0 60.0)
           (-90.0 90.0)
           (-90.0 90.0)
  end
  begin
     id 26 
     name rradius
     direction -1 -4.48982e-011 -6.86791e-027   
     length 3.32774   
     axis 180 30 90   XYZ
    dof rx
    limits (-10.0 170.0)
  end
  begin
     id 27 
     name rwrist
     direction -1 -4.48961e-011 -1.67336e-026   
     length 1.66387   
     axis 9.90442e-015 -90 -90   XYZ
    dof ry
    limits (-180.0 0.0)
  end
  begin
     id 28
     name rhand
     direction -1 -4.4897e-011 -3.34673e-026   
     length 0.507628   
     axis 2.1355e-014 -90 -90   XYZ
    dof rx rz
    limits (-90.0 90.0)
           (-45.0 45.0)
  end
  begin
     id 29
     name rfingers
     direction -1 -4.48854e-011 -6.69345e-026   
     length 0.409263   
     axis 4.27099e-014 -90 -90   XYZ
    dof rx
    limits (0.0 90.0)
  end
  begin
     id 30
     name rthumb
     direction -0.707107 -6.34913e-011 0.707107   
     length 0.587622   
     axis -90 -45 -2.85299e-015   XYZ
    dof rx rz
    limits (-45.0 45.0)
           (-45.0 45.0)
  end
:hierarchy
  begin
    root lhipjoint rhipjoint lowerback
    lhipjoint lfemur
    lfemur ltibia
    ltibia lfoot
    lfoot ltoes
    rhipjoint rfemur
    rfemur rtibia
    rtibia rfoot
    rfoot rtoes
    lowerback upperback
    upperback thorax
    thorax lowerneck lclavicle rclavicle
    lowerneck upperneck
    upperneck head
    lclavicle lhumerus
    lhumerus lradius
    lradius lwrist
    lwrist lhand lthumb
    lhand lfingers
    rclavicle rhumerus
    rhumerus rradius
    rradius rwrist
    rwrist rhand rthumb
    rhand rfingers
  end

#!OML:ASF E:\motion texture\Top Level 1\Subject 1\Session 1\male.ASF
:FULLY-SPECIFIED
:DEGREES
1
root 28.6101 17.4177 5.84392 -40.9255 -84.0969 41.3535
lowerback 5.23411 -5.42142 -6.38926
upperback -1.65693 -7.60037 2.26671
thorax -3.51396 -3.6165 6.47744
lowerneck -22.8259 -1.04046 -3.55128
upperneck 17.161 -1.28705 4.53679
head 9.20039 -0.322167 1.96794
rclavicle -2.99916e-014 1.82882e-014
rhumerus -61.4001 -10.4645 -54.8169
rradius 24.154
rwrist 9.92027
rhand -3.99996 -12.6652
rfingers 7.12502
rthumb 21.754 -41.4627
lclavicle -2.99916e-014 1.82882e-014
lhumerus -2.29688 -25.9848 83.5379
lradius 69.3274
lwrist 2.53537
lhand -11.6787 15.8149
lfingers 7.12502
lthumb 14.3666 45.2977
rfemur -77.6687 -5.87148 16.4966
rtibia 75.9262
rfoot 26.7268 -14.3993
rtoes 20.3945
lfemur 7.29578 -8.48197 -28.826
ltibia 16.6005
lfoot -19.8736 -1.19847
ltoes 1.07634
2
root 28.4724 17.3946 5.83342 -39.8819 -83.9729 40.6908
lowerback 4.73624 -5.46422 -6.36405
upperback -1.61963 -7.62452 2.25279
thorax -3.19632 -3.64567 6.38731
lowerneck -22.7976 -1.07126 -3.56348
upperneck 16.9773 -1.33776 4.61969
head 9.13472 -0.33745 1.98936
rclavicle 1.0576e-013 -7.15625e-015
rhumerus -60.708 -10.1759 -56.6905
rradius 25.1867
rwrist 8.52446
rhand -3.86399 -11.9837
rfingers 7.12502
rthumb 21.8846 -40.7661
lclavicle 1.0576e-013 -7.15625e-015
lhumerus -3.11506 -25.9539 84.1527
lradius 69.0645
lwrist 2.27933
lhand -11.8968 15.9794
lfingers 7.12502
lthumb 14.1565 45.4771
rfemur -76.0613 -6.05532 16.3557
rtibia 74.7297
rfoot 27.172 -14.5801
rtoes 21.6745
lfemur 7.49312 -8.31319 -28.679
ltibia 16.3968
lfoot -20.0994 -1.45859
ltoes 0.595275
3
root 28.3322 17.3707 5.82308 -38.8066 -83.8541 40.0008
lowerback 4.62595 -5.46741 -6.37705
upperback -1.86777 -7.62795 2.32206
thorax -3.38274 -3.63198 6.4724
lowerneck -22.4939 -1.09165 -3.60815
upperneck 16.9399 -1.35481 4.59595
head 9.06987 -0.355123 1.98434
rclavicle -3.16502e-014 2.54444e-014
rhumerus -60.3076 -9.51271 -58.5127
rradius 26.3134
rwrist 6.9051
rhand -4.30716 -12.2167
rfingers 7.12502
rthumb 21.459 -41.0482
lclavicle -3.16502e-014 2.54444e-014
lhumerus -4.46077 -25.8696 85.1614
lradius 68.6926
lwrist 2.1912
lhand -11.9839 15.9998
lfingers 7.12502
lthumb 14.0725 45.5033
rfemur -74.3453 -6.21285 16.209
rtibia 73.4816
rfoot 27.5646 -14.7266
rtoes 22.5342
lfemur 7.68395 -8.13235 -28.5197
ltibia 16.1872
lfoot -20.256 -1.72009
ltoes 0.0554625
4
root 28.184 17.3469 5.81159 -37.2496 -83.7419 38.7474
lowerback 4.1351 -5.46514 -6.27639
upperback -1.80064 -7.58754 2.30807
thorax -3.057 -3.63148 6.33756
lowerneck -22.6509 -1.21919 -3.68093
upperneck 16.9266 -1.51565 4.66697
head 9.10118 -0.424988 1.99855
rclavicle 4.64286e-014 7.15625e-015
rhumerus -59.3526 -9.44364 -60.3012
rradius 27.363
rwrist 5.52555
rhand -4.56212 -12.0242
rfingers 7.12502
rthumb 21.2141 -40.8834
lclavicle 4.64286e-014 7.15625e-015
lhumerus -5.37964 -25.8936 85.8953
lradius 68.0011
lwrist 2.26259
lhand -11.8068 16.0113
lfingers 7.12502
lthumb 14.2431 45.5029
rfemur -72.2313 -6.3957 16.0796
rtibia 71.9991
rfoot 27.8114 -14.8637
rtoes 24.1657
lfemur 7.9142 -8.01867 -28.3366
ltibia 16.1729
lfoot -20.3966 -1.8684
ltoes -0.513832
5
root 28.0366 17.3233 5.80032 -35.8667 -83.6426 37.6819
lowerback 3.80163 -5.46044 -6.20093
upperback -1.85792 -7.55834 2.33037
thorax -2.94025 -3.62272 6.28342
lowerneck -22.61 -1.30096 -3.74577
upperneck 16.9006 -1.61511 4.70346
head 9.09064 -0.472207 2.00728
rclavicle 3.25137e-014 -1.51076e-014
rhumerus -58.6013 -9.13708 -62.0072
rradius 28.5054
rwrist 4.12683
rhand -4.86536 -11.9585
rfingers 7.12502
rthumb 20.9228 -40.8501
lclavicle 3.25137e-014 -1.51076e-014
lhumerus -6.49434 -25.8373 86.7431
lradius 67.3558
lwrist 2.24347
lhand -11.7422 15.9946
lfingers 7.12502
lthumb 14.3054 45.4818
rfemur -70.1828 -6.53985 15.9681
rtibia 70.5359
rfoot 28.1295 -14.9572
rtoes 25.4511
lfemur 8.13602 -7.83692 -28.1222
ltibia 16.1055
lfoot -20.5189 -2.0918
ltoes -1.0838
6
root 27.8853 17.2999 5.78854 -34.4595 -83.5635 36.5662
lowerback 3.48413 -5.44216 -6.10878
upperback -1.92174 -7.5118 2.35928
thorax -2.84299 -3.60451 6.22933
lowerneck -22.5648 -1.38837 -3.81819
upperneck 16.8948 -1.7194 4.7335
head 9.08666 -0.522995 2.01454
rclavicle 6.8444e-014 -2.3059e-014
rhumerus -57.8107 -8.827 -63.6755
rradius 29.7145
rwrist 2.72048
rhand -5.20829 -11.9669
rfingers 7.12502
rthumb 20.5933 -40.8945
lclavicle 6.8444e-014 -2.3059e-014
lhumerus -7.67446 -25.7599 87.6305
lradius 66.5764
lwrist 2.23325
lhand -11.656 15.9186
lfingers 7.12502
lthumb 14.3885 45.3999
rfemur -67.9849 -6.65144 15.879
rtibia 68.9622
rfoot 28.4467 -14.9301
rtoes 26.6059
lfemur 8.36823 -7.63781 -27.8803
ltibia 16.0917
lfoot -20.6108 -2.31864
ltoes -1.65988
7
root 27.7293 17.2767 5.77597 -33.023 -83.5155 35.3921
lowerback 3.15551 -5.41231 -5.99865
upperback -1.97601 -7.44868 2.39582
thorax -2.73298 -3.5791 6.17144
lowerneck -22.5077 -1.47776 -3.89785
upperneck 16.887 -1.82379 4.76061
head 9.08007 -0.574806 2.02194
rclavicle -3.57067e-014 -1.51076e-014
rhumerus -56.9629 -8.52077 -65.3041
rradius 30.9972
rwrist 1.31351
rhand -5.5372 -11.9839
rfingers 7.12502
rthumb 20.2772 -40.9454
lclavicle -3.57067e-014 -1.51076e-014
lhumerus -8.89542 -25.6522 88.5348
lradius 65.6574
lwrist 2.21225
lhand -11.5989 15.7815
lfingers 7.12502
lthumb 14.4435 45.2589
rfemur -65.6335 -6.71888 15.8297
rtibia 67.2648
rfoot 28.7799 -14.7318
rtoes 27.5253
lfemur 8.6107 -7.42672 -27.6038
ltibia 16.1424
lfoot -20.6751 -2.55254
ltoes -2.23827
8
root 27.5684 17.254 5.76202 -31.5838 -83.5123 34.1904
lowerback 2.81652 -5.36879 -5.87373
upperback -2.02789 -7.3668 2.44372
thorax -2.61751 -3.54477 6.11616
lowerneck -22.4296 -1.56076 -3.97959
upperneck 16.8757 -1.91857 4.78346
head 9.06825 -0.623049 2.0295
rclavicle 1.81267e-014 -1.19271e-014
rhumerus -56.0726 -8.19489 -66.9035
rradius 32.3719
rwrist -0.0990915
rhand -5.84589 -12.0368
rfingers 7.12502
rthumb 19.9805 -41.0296
lclavicle 1.81267e-014 -1.19271e-014
lhumerus -10.1665 -25.5051 89.4531
lradius 64.5963
lwrist 2.17012
lhand -11.6046 15.5761
lfingers 7.12502
lthumb 14.4381 45.0538
rfemur -63.1356 -6.72393 15.836
rtibia 65.4336
rfoot 29.0019 -14.3467
rtoes 27.7682
lfemur 8.85091 -7.22084 -27.2917
ltibia 16.2769
lfoot -20.7096 -2.78887
ltoes -2.84021
9
root 27.4016 17.232 5.74615 -30.1184 -83.5599 32.9306
lowerback 2.45761 -5.31208 -5.73635
upperback -2.07243 -7.26655 2.50347
thorax -2.48558 -3.50221 6.06409
lowerneck -22.3286 -1.63768 -4.06658
upperneck 16.8626 -2.00343 4.80256
head 9.05144 -0.667763 2.03803
rclavicle -1.35174e-014 -6.36111e-015
rhumerus -55.1353 -7.84183 -68.4778
rradius 33.8411
rwrist -1.50489
rhand -6.11661 -12.1091
rfingers 7.12502
rthumb 19.7203 -41.1288
lclavicle -1.35174e-014 -6.36111e-015
lhumerus -11.4884 -25.312 90.3756
lradius 63.398
lwrist 2.10321
lhand -11.6858 15.3323
lfingers 7.12502
lthumb 14.3598 44.8157
rfemur -60.4811 -6.66311 15.9154
rtibia 63.4841
rfoot 28.5919 -13.8412
rtoes 26.2452
lfemur 9.08324 -7.02682 -26.9385
ltibia 16.5275
lfoot -20.7144 -3.04176
ltoes -3.48872
10
root 27.2287 17.2111 5.72782 -28.625 -83.6602 31.615
lowerback 2.04372 -5.24575 -5.59242
upperback -2.09199 -7.15108 2.57274
thorax -2.29827 -3.45477 6.01127
lowerneck -22.2175 -1.70528 -4.14578
upperneck 16.8397 -2.0755 4.80962
head 9.02867 -0.707478 2.04287
rclavicle -3.53216e-014 1.11319e-014
rhumerus -54.1209 -7.45491 -70.0474
rradius 35.4018
rwrist -2.8789
rhand -6.35081 -12.2081
rfingers 7.12502
rthumb 19.4951 -41.2508
lclavicle -3.53216e-014 1.11319e-014
lhumerus -12.8211 -25.0722 91.2654
lradius 62.056
lwrist 2.01068
lhand -11.6269 15.2169
lfingers 7.12502
lthumb 14.4165 44.6962
rfemur -57.6788 -6.54556 16.0867
rtibia 61.4699
rfoot 27.0439 -13.2259
rtoes 22.7802
lfemur 9.28397 -6.84194 -26.5393
ltibia 16.9265
lfoot -20.684 -3.33205
ltoes -4.25127
11
root 27.0495 17.1916 5.70644 -26.9733 -83.8095 30.1172
lowerback 1.597 -5.17278 -5.43693
upperback -2.10895 -7.02639 2.65535
thorax -2.09062 -3.40347 5.96348
lowerneck -22.0899 -1.76123 -4.21688
upperneck 16.8351 -2.13245 4.80091
head 9.00836 -0.741624 2.04327
rclavicle 5.09261e-014 -1.43125e-014
rhumerus -53.0535 -6.98545 -71.6319
rradius 37.0583
rwrist -4.20862
rhand -6.58343 -12.3589
rfingers 7.12502
rthumb 19.2714 -41.424
lclavicle 5.09261e-014 -1.43125e-014
lhumerus -14.2026 -24.78 92.133
lradius 60.5762
lwrist 1.89741
lhand -11.4314 15.2572
lfingers 7.12502
lthumb 14.6049 44.723
rfemur -54.7569 -6.39655 16.3748
rtibia 59.471
rfoot 23.9772 -12.5241
rtoes 17.7551
lfemur 9.42196 -6.66549 -26.0731
ltibia 17.5159
lfoot -20.5923 -3.6951
ltoes -5.1793
